<svg width="60" height="60" viewBox="0 0 60 60" fill="none" xmlns="http://www.w3.org/2000/svg">
<path d="M55.9425 55.9617C55.7666 55.4887 55.2416 55.2492 54.7686 55.4281L51.8756 56.5097L47.578 45.0237C50.0325 43.8585 51.9766 41.8019 52.9774 39.2549C54.0908 36.4225 53.9495 33.2381 52.5881 30.5181C52.4842 30.3133 45.5791 16.523 45.4753 16.3185C45.2677 15.9002 44.7744 15.7099 44.3418 15.8714L29.4987 21.4267L14.6557 15.8714C14.2201 15.707 13.7298 15.9002 13.5221 16.3185L6.41224 30.5181C5.0508 33.241 4.90947 36.4253 6.02285 39.2579C7.02374 41.8048 8.96776 43.8585 11.4223 45.0267L7.12468 56.5127L4.23168 55.431C3.75865 55.2551 3.23367 55.4945 3.05779 55.9646C2.88185 56.4348 3.12124 56.9598 3.59139 57.1386L11.0823 59.9422C11.1862 59.9826 11.2958 59.9999 11.4025 59.9999C11.7717 59.9999 12.1178 59.7749 12.2562 59.4086C12.4321 58.9385 12.1927 58.4135 11.7226 58.2347L8.8296 57.1531L13.1244 45.673C15.7721 46.4143 18.5815 46.1115 20.9867 44.8567C23.6835 43.4521 25.665 40.9541 26.4237 38.0092L28.7513 28.9725V28.9639L29.4983 26.0621L30.2453 28.961V28.9725L32.5729 38.0092C34.0612 43.7953 40.0321 47.3057 45.8728 45.6731L50.1704 57.1532L47.2774 58.2348C46.8072 58.4107 46.5679 58.9357 46.7438 59.4087C46.8794 59.775 47.2284 60 47.5975 60C47.7042 60 47.811 59.9827 47.9177 59.9423L55.4086 57.1386C55.8788 56.9627 56.1182 56.4377 55.9422 55.9647L55.9425 55.9617ZM44.2147 17.8672L49.2075 27.8416C48.1489 27.5589 46.8625 27.4205 45.6107 27.8185C44.1022 28.3002 42.96 29.4424 42.2187 31.2106C41.9216 31.9231 41.489 32.3211 40.8573 32.4711C38.3594 33.0538 33.7647 29.7684 31.939 28.2368L30.5834 22.9699L44.2118 17.8703L44.2147 17.8672ZM14.7863 17.8672L28.4147 22.9668L27.0591 28.2337C25.2333 29.7653 20.6415 33.0535 18.1409 32.468C16.2603 32.0267 16.8314 28.9202 13.3875 27.8184C12.1357 27.4203 10.8493 27.5588 9.79075 27.8414L14.7835 17.8641L14.7863 17.8672ZM20.1483 43.2382C17.9071 44.4035 15.268 44.5679 12.9 43.6824H12.8971H12.8942C10.5291 42.7969 8.6427 40.9422 7.71972 38.5914C6.79385 36.2406 6.91207 33.5956 8.04276 31.3343L8.57348 30.2728C9.20226 29.9411 11.1665 29.0239 12.8365 29.5575C15.5622 30.4286 14.5729 33.5062 17.7283 34.2447C20.3934 34.8706 24.0247 32.7448 26.3239 31.1064L24.6654 37.5531C24.0366 39.9991 22.3897 42.0701 20.1514 43.2383L20.1483 43.2382ZM34.3423 37.553L32.6838 31.1063C34.9826 32.7447 38.6081 34.8705 41.2793 34.2446C42.4763 33.9648 43.3849 33.16 43.907 31.9169C44.4377 30.6507 45.1761 29.8776 46.1654 29.5603C47.8469 29.0181 49.8054 29.9382 50.4341 30.2728L50.9649 31.3342C52.0955 33.5956 52.2138 36.2406 51.2879 38.5914C50.3649 40.9422 48.4786 42.7969 46.1134 43.6824H46.1106H46.1077C41.1639 45.5313 35.6691 42.6988 34.3452 37.553L34.3423 37.553ZM29.0582 18.0974C29.3293 18.2474 29.6668 18.2532 29.9466 18.0974C38.8766 13.1189 39.615 7.80548 39.5198 5.75492C39.4073 3.34646 38.118 1.3735 36.0758 0.476482C34.0424 -0.417657 31.6311 -0.0369406 29.5025 1.48027C27.3768 -0.0369333 24.9626 -0.414777 22.932 0.476482C20.89 1.3735 19.6035 3.34646 19.4881 5.75492C19.3901 7.80858 20.1285 13.1189 29.0613 18.1004L29.0582 18.0974ZM23.6616 2.1441C25.4557 1.35667 27.4055 2.06911 28.9169 3.32962C29.2544 3.61229 29.7476 3.61229 30.085 3.32962C31.83 1.87296 33.7452 1.44321 35.3403 2.1441C36.7363 2.75848 37.616 4.13722 37.6967 5.83903C37.8612 9.31184 34.8066 13.1798 29.4992 16.2521C24.192 13.1801 21.1406 9.31221 21.3046 5.83903C21.3853 4.13722 22.2656 2.75558 23.6616 2.1441Z" fill="#FFFFFF"/>
</svg>
