<svg width="60" height="60" viewBox="0 0 60 60" fill="none" xmlns="http://www.w3.org/2000/svg">
<path d="M57.9976 28.0001C57.9976 12.5601 45.4381 0 29.9988 0C14.5595 0 2 12.5601 2 28.0001C2 39.3627 8.69987 49.3929 19.1141 53.775L18.9992 57C18.9992 58.655 20.3441 60 21.999 60H23.9989C25.6538 60 26.9988 58.655 26.9988 56.965L26.9588 55.8175C27.9513 55.9275 28.9612 56 30.0012 56C32.1036 56 34.1635 55.76 36.1534 55.305L36.0009 57C36.0009 58.6549 37.3459 60 39.0008 60H41.0007C42.6556 60 44.0006 58.6549 44.0006 57V52.2374C52.6453 47.2399 58 38.0147 58 27.9999L57.9976 28.0001ZM17.4643 26.8801L19.9842 29.4001L19.5117 42.6104C14.8419 39.2504 11.9997 33.8027 11.9997 28.0004C11.9997 23.8929 13.4471 19.9076 15.9995 16.723V23.3431C15.9995 24.6781 16.5195 25.9357 17.4645 26.8781L17.4643 26.8801ZM41.9983 56.9999C41.9983 57.5524 41.5508 57.9999 40.9983 57.9999H38.9984C38.4459 57.9999 37.9985 57.5524 37.9935 57.0899L39.9934 35.0898C40.0209 34.7948 39.9134 34.5023 39.7034 34.2923L36.876 31.4648C36.3085 30.8973 35.9985 30.1448 35.9985 29.3423V28.9998C35.9985 21.6097 38.1435 14.9594 39.7059 11.8445C39.7434 11.797 39.7809 11.7545 39.8109 11.6995C39.8334 11.6595 39.8334 11.6145 39.8484 11.572C40.3209 10.6745 40.7333 10.112 40.9984 9.99951C41.5508 9.99951 41.9983 10.447 41.9983 10.9995L41.9983 56.9999ZM43.9982 16.722C46.5506 19.9045 47.998 23.8894 47.998 27.9995C47.998 32.1845 46.5806 36.1019 43.9982 39.277V16.722ZM43.9982 49.9119V42.2421C47.808 38.5096 49.998 33.3544 49.998 27.9995C49.998 22.6544 47.808 17.4919 43.9982 13.7396V10.9996C43.9982 9.34462 42.6532 7.99959 40.9983 7.99959C40.1959 7.99959 39.3559 8.7146 38.546 9.93707C36.8435 9.13207 35.0411 8.55709 33.1562 8.25207C32.6087 8.16457 32.0963 8.53457 32.0087 9.07959C31.9212 9.62461 32.2912 10.1371 32.8362 10.2271C34.4886 10.4946 36.0736 10.9921 37.571 11.6871C35.5835 15.8271 33.9961 22.7796 33.9961 28.9998V29.3423C33.9961 30.6773 34.5161 31.9348 35.4611 32.8773L37.9585 35.3748L36.3411 53.1976C34.3011 53.7201 32.1738 53.9976 29.9963 53.9976C28.9288 53.9976 27.8914 53.9176 26.8839 53.7951L26.6664 47.7151C27.7714 47.9001 28.8864 47.9976 29.9963 47.9976C31.0663 47.9976 32.1287 47.9126 33.1561 47.7451C33.7011 47.6551 34.0711 47.1425 33.9811 46.5975C33.8911 46.0525 33.3787 45.685 32.8337 45.7725C30.8213 46.1025 28.6788 46.05 26.5914 45.6525L26.0115 29.3977L28.5314 26.8777C29.4763 25.9327 29.9963 24.6777 29.9963 23.3427V9.00025C29.9963 8.44775 29.5488 8.00025 28.9964 8.00025C28.4439 8.00025 27.9964 8.44775 27.9964 9.00025V23.3427C27.9964 24.1452 27.6839 24.8977 27.1189 25.4652L24.2915 28.2927C24.094 28.4902 23.989 28.7577 23.999 29.0353L24.999 57.0002C24.999 57.5527 24.5515 58.0002 23.999 58.0002H21.9991C21.4467 58.0002 20.9992 57.5527 20.9992 57.0352L21.9991 29.0351C22.0091 28.7576 21.9041 28.4876 21.7066 28.2926L18.8792 25.465C18.3118 24.8975 18.0018 24.145 18.0018 23.3425V9.00006C18.0018 8.44756 17.5543 8.00005 17.0018 8.00005C16.4493 8.00005 16.0019 8.44756 16.0019 9.00006V13.74C12.192 17.4926 10.0021 22.6553 10.0021 27.9999C10.0021 34.8851 13.6045 41.3222 19.4315 44.96L19.194 51.6276C9.92463 47.4126 4.00232 38.295 4.00232 27.9999C4.00232 13.6626 15.6645 1.99984 30.0012 1.99984C44.3379 1.99984 56.0001 13.6626 56.0001 27.9999C56.0001 36.9101 51.4428 45.1552 44.0006 49.9124L43.9982 49.9119ZM21.9991 8.99908V20.9991C21.9991 21.5516 21.5517 21.9991 20.9992 21.9991C20.4467 21.9991 19.9992 21.5516 19.9992 20.9991V8.99908C19.9992 8.44658 20.4467 7.99907 20.9992 7.99907C21.5517 7.99907 21.9991 8.44658 21.9991 8.99908ZM25.999 8.99908V20.9991C25.999 21.5516 25.5515 21.9991 24.999 21.9991C24.4465 21.9991 23.9991 21.5516 23.9991 20.9991V8.99908C23.9991 8.44658 24.4465 7.99907 24.999 7.99907C25.5515 7.99907 25.999 8.44658 25.999 8.99908Z" fill="#FFFFFF"/>
</svg>
