<svg width="60" height="60" viewBox="0 0 60 60" fill="none" xmlns="http://www.w3.org/2000/svg">
<path d="M46.2417 57.5998C46.2505 57.8459 46.3821 58.0745 46.5928 58.2005C47.21 58.5755 47.912 58.7631 48.6931 58.7631C49.3952 58.7631 50.1616 58.6107 50.9865 58.306H54.2687C54.6724 58.306 55 57.9778 55 57.5734V27.2487C55 16.5533 48.2748 6.95693 38.2321 3.26479C37.9658 2.68755 37.5739 2.13667 37.0561 1.61803C34.9879 -0.453598 31.6707 -0.535663 29.503 1.37776C27.3354 -0.535671 24.0181 -0.456531 21.9469 1.61803C21.4291 2.13668 21.0372 2.68757 20.7709 3.26479C10.7286 6.95978 4 16.5563 4 27.2517V57.5764C4 57.9808 4.32763 58.309 4.73132 58.309H8.02515C8.85302 58.6108 9.61942 58.7661 10.3215 58.7661C11.1026 58.7661 11.8046 58.5785 12.4248 58.2035C12.6354 58.0745 12.767 57.8489 12.7758 57.6028C13.276 42.5267 12.0884 32.658 9.14549 27.4806C16.757 22.4729 21.4315 16.8438 23.073 10.7227C24.3338 12.1263 25.849 13.4419 27.2122 14.6257C27.8997 15.2205 28.5461 15.7831 29.0522 16.2666C29.1926 16.4014 29.374 16.4688 29.5583 16.4688C29.7425 16.4688 29.9268 16.3985 30.0673 16.2607C30.5704 15.7714 31.2139 15.2029 31.8985 14.6023C33.2324 13.4273 34.7126 12.1233 35.947 10.7345C37.5881 16.8497 42.2627 22.4725 49.8685 27.4774C46.9286 32.655 45.7416 42.5244 46.2417 57.5998ZM53.5403 27.2518V56.8467H51.5891V27.2518V27.2401V27.2372C51.5862 22.751 50.2318 18.4231 47.6751 14.719C45.3144 11.3053 42.0966 8.64174 38.3344 6.98591C38.5216 6.44089 38.6357 5.89004 38.6533 5.33622C38.6562 5.22195 38.6562 5.1106 38.6503 4.99925C47.6076 8.71764 53.5403 17.5001 53.5403 27.2518ZM7.41739 56.8467H5.4662V27.2518C5.4662 17.5001 11.3987 8.71835 20.356 4.99996C20.3501 5.11717 20.3501 5.23438 20.3531 5.35159C20.3735 5.90247 20.4876 6.44745 20.6748 6.98957C16.913 8.6451 13.6922 11.3057 11.3312 14.7227C8.76864 18.4293 7.41423 22.7633 7.41423 27.2551V56.8499L7.41739 56.8467ZM11.3344 57.1192C10.6762 57.38 9.85121 57.3594 8.87716 57.0547V30.3606C10.8985 35.6672 11.7235 44.6393 11.3344 57.1222V57.1192ZM8.92389 25.8688C9.45043 18.2737 14.2625 11.4025 21.2892 8.31424C21.4764 8.64243 21.6841 8.96475 21.9123 9.28416C20.6837 15.2969 16.3162 20.8699 8.92389 25.8688ZM30.9369 13.5036C30.4484 13.9344 29.9775 14.3505 29.5562 14.7372C29.1349 14.3563 28.664 13.9461 28.1725 13.5183C25.531 11.2298 21.9153 8.09446 21.8158 5.2961C21.7807 4.34088 22.1639 3.47351 22.9859 2.65309C23.7787 1.85901 24.8201 1.46346 25.8615 1.46346C26.8999 1.46346 27.9413 1.85904 28.7311 2.65017L28.9886 2.91388C29.126 3.0516 29.3103 3.13071 29.5063 3.13071C29.7052 3.13071 29.8866 3.05453 30.0241 2.91681L30.2874 2.65309C31.87 1.06784 34.4471 1.06784 36.0297 2.65309C36.489 3.11313 36.8108 3.5849 36.998 4.08299C37.0009 4.09178 37.0039 4.09764 37.0068 4.1035C37.1472 4.48442 37.2115 4.87703 37.1998 5.28728C37.1092 8.07094 33.5433 11.2121 30.9427 13.5034L30.9369 13.5036ZM37.1063 9.28709C37.3345 8.9677 37.5422 8.64244 37.7265 8.31424C44.7472 11.4056 49.5534 18.2707 50.0828 25.8605C42.6965 20.8645 38.3346 15.2942 37.1094 9.28716L37.1063 9.28709ZM50.1299 30.3875V57.0553C49.1616 57.3571 48.3426 57.3777 47.6844 57.1169C47.2954 44.661 48.1174 35.6969 50.1299 30.3875ZM31.5954 52.0152C31.8324 51.7251 32.1834 51.5581 32.5579 51.5581C32.9323 51.5581 33.2833 51.7251 33.5232 52.0152C34.0381 52.6481 34.8015 53.0085 35.6148 53.0085C36.428 53.0085 37.1886 52.6452 37.7064 52.0152C37.9434 51.7251 38.2973 51.5581 38.6718 51.5581C39.0433 51.5581 39.3943 51.7251 39.6312 52.0152C40.1461 52.6481 40.9096 53.0085 41.7228 53.0085C42.5331 53.0085 43.2967 52.6481 43.8144 52.0181C43.9227 51.8863 43.9812 51.7222 43.9812 51.5522V38.6418C43.9812 37.6748 43.1943 36.8866 42.229 36.8866H34.8982V33.8627C35.6032 33.7074 36.2614 33.3353 36.744 32.8019C37.3349 32.1514 37.6158 31.3339 37.5338 30.4988L37.0921 25.9893C37.0541 25.6142 36.7411 25.33 36.3667 25.33H31.97C31.5955 25.33 31.2796 25.6142 31.2445 25.9893L30.8057 30.4959C30.7238 31.3281 31.0046 32.1456 31.5926 32.7961C32.0753 33.3294 32.7364 33.7044 33.4384 33.8598V36.8837H25.5753V33.8598C26.2803 33.7045 26.9414 33.3294 27.427 32.7961C28.015 32.1456 28.2959 31.3281 28.2139 30.4959L27.7752 25.9863C27.74 25.6113 27.4241 25.327 27.0497 25.327H22.6501C22.2756 25.327 21.9597 25.6113 21.9246 25.9863L21.4858 30.493C21.4039 31.3251 21.6847 32.1426 22.2727 32.7932C22.7554 33.3264 23.4165 33.7015 24.1185 33.8568V36.8808H16.7937C15.8283 36.8808 15.0415 37.669 15.0415 38.6359V51.5464C15.0415 51.7134 15.1 51.8775 15.2053 52.0064C15.7172 52.6393 16.4807 53.0027 17.2969 53.0027C18.1101 53.0027 18.8736 52.6393 19.3914 52.0064C19.6254 51.7163 19.9765 51.5493 20.3509 51.5493C20.7253 51.5493 21.0763 51.7163 21.3133 52.0064C21.8311 52.6364 22.5945 52.9997 23.4078 52.9997C24.2181 52.9997 24.9816 52.6364 25.4994 52.0035C25.7334 51.7134 26.0845 51.5464 26.4589 51.5464C26.8333 51.5464 27.1843 51.7134 27.4213 52.0035C27.433 52.0182 27.4476 52.0328 27.4593 52.0475V55.76H27.0293C25.8621 55.76 24.9144 56.7094 24.9144 57.8785V59.2674C24.9144 59.6718 25.242 60 25.6457 60H33.383C33.7867 60 34.1143 59.6718 34.1143 59.2674V57.8785C34.1143 56.7123 33.1636 55.76 31.9964 55.76H31.5664V52.0475C31.5781 52.0328 31.5928 52.0182 31.6045 52.0035L31.5954 52.0152ZM32.2536 30.6425L32.628 26.7952H35.7025L36.0799 30.6425C36.1208 31.0615 35.9716 31.4806 35.6616 31.8205C35.2842 32.2336 34.7255 32.4827 34.1667 32.4827C33.608 32.4827 33.0464 32.2336 32.6719 31.8175C32.3648 31.4776 32.2156 31.0586 32.2565 30.6425L32.2536 30.6425ZM22.9309 30.6425L23.3053 26.7952H26.3828L26.7572 30.6425C26.7981 31.0586 26.6519 31.4776 26.3418 31.8175C25.9644 32.2336 25.4057 32.4827 24.8441 32.4827C24.2853 32.4827 23.7237 32.2336 23.3492 31.8175C23.0421 31.4776 22.8929 31.0586 22.9338 30.6425H22.9309ZM26.45 50.0934C25.6339 50.0934 24.8703 50.4567 24.3584 51.0867C24.1215 51.3768 23.7704 51.5438 23.396 51.5438C23.0215 51.5438 22.6705 51.3768 22.4335 51.0867C21.9216 50.4538 21.1581 50.0905 20.3419 50.0905C19.5257 50.0905 18.7623 50.4538 18.2503 51.0838C18.0134 51.3739 17.6594 51.5409 17.285 51.5409C16.9895 51.5409 16.7087 51.4383 16.4893 51.2508V38.6366C16.4893 38.4755 16.6209 38.3436 16.7818 38.3436H42.2202C42.3781 38.3436 42.5127 38.4784 42.5127 38.6366V51.2478C42.2875 51.4353 42.0066 51.5408 41.7141 51.5408C41.3455 51.5408 40.9886 51.3709 40.7517 51.0837C40.2339 50.4508 39.4733 50.0904 38.6601 50.0904C37.8469 50.0904 37.0833 50.4537 36.5655 51.0837C36.3315 51.3709 35.9717 51.5408 35.6061 51.5408C35.2375 51.5408 34.8806 51.3709 34.6436 51.0837C34.1259 50.4508 33.3653 50.0904 32.5491 50.0904C31.7389 50.0904 30.9753 50.4537 30.4575 51.0866C30.2235 51.3767 29.8725 51.5437 29.4981 51.5437C29.1237 51.5437 28.7726 51.3767 28.5356 51.0866C28.0237 50.4537 27.2602 50.0904 26.444 50.0904L26.45 50.0934ZM32.6428 57.888V58.5473H26.3652V57.888C26.3652 57.5276 26.6577 57.2316 27.0204 57.2316H31.9875C32.3503 57.2316 32.6457 57.5246 32.6457 57.888H32.6428ZM28.9072 55.7695V52.9418C29.1003 52.9858 29.2992 53.0092 29.504 53.0092C29.7058 53.0092 29.9047 52.9858 30.0949 52.9448V55.7724H28.9072L28.9072 55.7695Z" fill="#A7321F"/>
</svg>
