<svg width="60" height="60" viewBox="0 0 60 60" xmlns="http://www.w3.org/2000/svg">
<g clip-path="url(#clip0_120_815)">
<path d="M48.7452 60.0002H9.70889C9.46779 60.0002 9.23656 59.9044 9.06607 59.7339C8.89558 59.5634 8.7998 59.3322 8.7998 59.0911V55.3002C8.7998 55.0591 8.89558 54.8279 9.06607 54.6574C9.23656 54.4869 9.46779 54.3911 9.70889 54.3911H48.7452C48.9863 54.3911 49.2175 54.4869 49.388 54.6574C49.5585 54.8279 49.6543 55.0591 49.6543 55.3002V59.0911C49.6543 59.3322 49.5585 59.5634 49.388 59.7339C49.2175 59.9044 48.9863 60.0002 48.7452 60.0002ZM10.618 58.182H47.8361V56.2093H10.618V58.182Z" fill="#A7321F"/>
<path d="M39.4633 56.2088H18.9906C18.7495 56.2088 18.5183 56.113 18.3478 55.9425C18.1773 55.7721 18.0816 55.5408 18.0816 55.2997V35.4543C18.0808 35.303 18.1179 35.1539 18.1893 35.0206C18.2607 34.8873 18.3643 34.7738 18.4906 34.6906L28.7543 27.8907C28.9037 27.791 29.0792 27.7378 29.2588 27.7378C29.4384 27.7378 29.614 27.791 29.7634 27.8907L39.9633 34.6906C40.0897 34.7738 40.1933 34.8873 40.2647 35.0206C40.3361 35.1539 40.3732 35.303 40.3724 35.4543V55.2997C40.3724 55.5408 40.2767 55.7721 40.1062 55.9425C39.9357 56.113 39.7044 56.2088 39.4633 56.2088ZM19.8997 54.3906H38.5543V35.8997L29.227 29.7088L19.8997 35.8997V54.3906Z" fill="#A7321F"/>
<path d="M47.0639 56.209C46.8228 56.209 46.5915 56.1133 46.421 55.9428C46.2505 55.7723 46.1548 55.5411 46.1548 55.3V42.0636L39.1548 39.5909C39.042 39.5509 38.9381 39.4891 38.8492 39.4089C38.7603 39.3288 38.688 39.232 38.6365 39.1239C38.585 39.0159 38.5553 38.8987 38.5491 38.7792C38.5429 38.6596 38.5602 38.5401 38.6002 38.4272C38.6402 38.3144 38.7021 38.2106 38.7822 38.1217C38.8623 38.0327 38.9591 37.9605 39.0672 37.909C39.2854 37.805 39.536 37.7919 39.7639 37.8727L47.3639 40.6C47.5413 40.662 47.6951 40.7774 47.8042 40.9305C47.9132 41.0835 47.9722 41.2666 47.973 41.4545V55.3C47.973 55.5411 47.8772 55.7723 47.7067 55.9428C47.5362 56.1133 47.305 56.209 47.0639 56.209Z" fill="#A7321F"/>
<path d="M11.4638 56.209C11.2227 56.209 10.9914 56.1132 10.821 55.9427C10.6505 55.7723 10.5547 55.541 10.5547 55.2999V41.4181C10.5548 41.2313 10.6124 41.049 10.7198 40.8961C10.8271 40.7432 10.979 40.6271 11.1547 40.5636L18.691 37.8999C18.8052 37.8507 18.9283 37.8255 19.0526 37.8257C19.1769 37.8259 19.2999 37.8516 19.4139 37.9013C19.5279 37.9509 19.6305 38.0234 19.7153 38.1143C19.8002 38.2052 19.8655 38.3125 19.9073 38.4296C19.949 38.5467 19.9663 38.6711 19.958 38.7952C19.9497 38.9193 19.9161 39.0403 19.8592 39.1508C19.8023 39.2614 19.7233 39.3591 19.6272 39.4379C19.531 39.5167 19.4197 39.575 19.3001 39.609L12.3729 42.0636V55.2999C12.3729 55.541 12.2771 55.7723 12.1066 55.9427C11.9361 56.1132 11.7049 56.209 11.4638 56.209Z" fill="#A7321F"/>
<path d="M22.3363 34.1089C22.0952 34.1089 21.864 34.0131 21.6935 33.8426C21.523 33.6721 21.4272 33.4409 21.4272 33.1998V17.1907C21.4274 17.0616 21.4551 16.9341 21.5084 16.8165C21.5616 16.6989 21.6394 16.5941 21.7363 16.5089L28.6272 10.4634C28.7931 10.3177 29.0064 10.2373 29.2272 10.2373C29.4481 10.2373 29.6613 10.3177 29.8272 10.4634L36.7181 16.5089C36.8168 16.5932 36.8962 16.6977 36.9511 16.8153C37.006 16.9329 37.035 17.0609 37.0363 17.1907V33.1816C37.0363 33.4227 36.9405 33.6539 36.7701 33.8244C36.5996 33.9949 36.3683 34.0907 36.1272 34.0907C35.8861 34.0907 35.6549 33.9949 35.4844 33.8244C35.3139 33.6539 35.2181 33.4227 35.2181 33.1816V17.5998L29.2272 12.3543L23.2454 17.5998V33.1998C23.2454 33.4409 23.1496 33.6721 22.9792 33.8426C22.8087 34.0131 22.5774 34.1089 22.3363 34.1089Z" fill="#A7321F"/>
<path d="M29.2272 25.7455C28.4001 25.7455 27.5916 25.5002 26.9039 25.0407C26.2162 24.5812 25.6802 23.9281 25.3637 23.164C25.0472 22.3998 24.9644 21.559 25.1258 20.7478C25.2871 19.9366 25.6854 19.1915 26.2702 18.6067C26.8551 18.0218 27.6002 17.6235 28.4114 17.4622C29.2226 17.3008 30.0634 17.3836 30.8275 17.7002C31.5917 18.0167 32.2448 18.5527 32.7043 19.2404C33.1638 19.9281 33.409 20.7366 33.409 21.5637C33.409 22.6727 32.9685 23.7364 32.1842 24.5206C31.4 25.3049 30.3363 25.7455 29.2272 25.7455ZM29.2272 19.2C28.7597 19.2 28.3028 19.3386 27.9141 19.5984C27.5254 19.8581 27.2224 20.2272 27.0435 20.6591C26.8646 21.091 26.8178 21.5663 26.909 22.0248C27.0002 22.4833 27.2253 22.9044 27.5559 23.235C27.8864 23.5656 28.3076 23.7907 28.7661 23.8819C29.2246 23.9731 29.6999 23.9263 30.1317 23.7474C30.5636 23.5685 30.9328 23.2655 31.1925 22.8768C31.4522 22.4881 31.5909 22.0311 31.5909 21.5637C31.5909 20.9368 31.3418 20.3356 30.8986 19.8923C30.4553 19.449 29.8541 19.2 29.2272 19.2Z" fill="#A7321F"/>
<path d="M29.2274 12.0545C28.9863 12.0545 28.7551 11.9588 28.5846 11.7883C28.4141 11.6178 28.3184 11.3865 28.3184 11.1454V0.90909C28.3184 0.667984 28.4141 0.436754 28.5846 0.266266C28.7551 0.0957789 28.9863 0 29.2274 0C29.4686 0 29.6998 0.0957789 29.8703 0.266266C30.0408 0.436754 30.1365 0.667984 30.1365 0.90909V11.1454C30.1365 11.3865 30.0408 11.6178 29.8703 11.7883C29.6998 11.9588 29.4686 12.0545 29.2274 12.0545Z" fill="#A7321F"/>
<path d="M33.2632 5.60041H25.1996C24.9585 5.60041 24.7273 5.50463 24.5568 5.33414C24.3863 5.16365 24.2905 4.93242 24.2905 4.69132C24.2905 4.45021 24.3863 4.21898 24.5568 4.04849C24.7273 3.87801 24.9585 3.78223 25.1996 3.78223H33.2632C33.5043 3.78223 33.7356 3.87801 33.9061 4.04849C34.0766 4.21898 34.1723 4.45021 34.1723 4.69132C34.1723 4.93242 34.0766 5.16365 33.9061 5.33414C33.7356 5.50463 33.5043 5.60041 33.2632 5.60041Z" fill="#A7321F"/>
<path d="M34.0182 56.2087H24.4364C24.1953 56.2087 23.9641 56.1129 23.7936 55.9425C23.6231 55.772 23.5273 55.5407 23.5273 55.2996V46.2542C23.5273 44.7425 24.1279 43.2926 25.1968 42.2237C26.2658 41.1547 27.7156 40.5542 29.2273 40.5542C30.7391 40.5542 32.1889 41.1547 33.2578 42.2237C34.3268 43.2926 34.9273 44.7425 34.9273 46.2542V55.2996C34.9273 55.5407 34.8316 55.772 34.6611 55.9425C34.4906 56.1129 34.2593 56.2087 34.0182 56.2087ZM25.3455 54.3905H33.1092V46.2542C33.1092 45.2247 32.7002 44.2373 31.9722 43.5093C31.2442 42.7814 30.2569 42.3724 29.2273 42.3724C28.1978 42.3724 27.2105 42.7814 26.4825 43.5093C25.7545 44.2373 25.3455 45.2247 25.3455 46.2542V54.3905Z" fill="#A7321F"/>
</g>
<defs>
<clipPath id="clip0_120_815">
<rect width="60" height="60" fill="white"/>
</clipPath>
</defs>
</svg>
