<svg width="60" height="60" viewBox="0 0 60 60" fill="none" xmlns="http://www.w3.org/2000/svg">
<g clip-path="url(#clip0_120_814)">
<path d="M37.0023 0.740137C31.1841 -0.562999 25.1482 -0.140767 19.5451 1.97061C11.9741 4.8258 5.98372 10.4246 2.66756 17.7345C-0.645768 25.0445 -0.87758 33.1992 2.00037 40.6853C6.60289 52.6399 18.1462 60 30.3701 60C33.952 60 37.5933 59.3708 41.1385 58.0313C46.739 55.92 51.5306 52.2622 54.9966 47.4576C55.3019 47.0353 55.2567 46.4565 54.8892 46.0817C54.5188 45.7098 53.9336 45.6511 53.4982 45.9447C51.9942 46.9626 50.3432 47.8072 48.5989 48.4643C42.6196 50.7182 36.1058 50.5336 30.2739 47.9497C24.4332 45.3658 19.9694 40.6763 17.6874 34.7616C15.4088 28.8471 15.5954 22.4125 18.2076 16.6352C20.8199 10.8578 25.5608 6.44238 31.5403 4.18517C33.2846 3.52521 35.0854 3.07497 36.8948 2.84009C37.4149 2.77577 37.8135 2.34511 37.8362 1.82216C37.8588 1.29923 37.5026 0.840605 36.988 0.725991L37.0023 0.740137ZM30.777 2.18588C24.2549 4.64117 19.0901 9.46792 16.2372 15.7656C13.3846 22.066 13.1839 29.0826 15.6661 35.5392C18.1483 41.9906 23.0279 47.0994 29.3946 49.9215C35.7641 52.7431 42.8575 52.9417 49.3849 50.4864C49.4132 50.4724 49.4499 50.464 49.4782 50.45C46.8575 52.855 43.776 54.7537 40.3751 56.0345C25.8721 61.5044 9.56566 54.2812 4.0356 39.927C1.35836 32.975 1.57606 25.408 4.65191 18.6206C7.72775 11.8333 13.294 6.63806 20.3193 3.98712C23.5536 2.77067 26.9403 2.15544 30.3358 2.15544H30.8701C30.8419 2.16942 30.8051 2.17781 30.7768 2.19179L30.777 2.18588Z" fill="#FFFFFF"/>
<path d="M23.1638 36.0395C23.4098 36.3415 23.7999 36.4897 24.1929 36.4254L28.9763 35.6088L32.6883 38.7017C32.8834 38.8667 33.1378 38.9534 33.3894 38.9534C33.5195 38.9534 33.6495 38.931 33.7739 38.8807C34.1442 38.7437 34.4043 38.4165 34.4609 38.0278L35.1563 33.2738L39.2811 30.7318C39.6147 30.5249 39.8097 30.1586 39.7956 29.7642C39.773 29.3783 39.5412 29.026 39.1878 28.8554L34.8312 26.7357L33.6665 22.0685C33.5732 21.6882 33.2763 21.3889 32.9003 21.2883C32.5158 21.1876 32.1116 21.2967 31.8373 21.5735L28.4504 25.016L23.602 24.672C23.1977 24.6441 22.8274 24.8286 22.6181 25.1586C22.4005 25.4886 22.3807 25.9025 22.5673 26.2464L24.8317 30.4998L23.0083 34.9518C22.8556 35.3097 22.9207 35.7236 23.1666 36.0256L23.1638 36.0395ZM27.0369 30.8576C27.1613 30.564 27.1387 30.234 26.9945 29.9544L25.4029 26.9678L28.8039 27.2111C29.129 27.2334 29.4343 27.1188 29.6577 26.8895L32.0324 24.4706L32.8494 27.7424C32.9286 28.05 33.1378 28.3073 33.4205 28.4499L36.4822 29.9376L33.5873 31.7189C33.3131 31.8839 33.1321 32.1636 33.0869 32.4768L32.6006 35.813L29.994 33.643C29.799 33.478 29.5445 33.3913 29.2929 33.3913C29.2364 33.3913 29.1685 33.3913 29.1035 33.4053L25.7449 33.9785L27.0256 30.8577L27.0369 30.8576Z" fill="#FFFFFF"/>
<path d="M55.616 34.0652C55.3983 33.7436 55.0223 33.5646 54.6237 33.5926L52.0256 33.8135L50.188 31.9874C49.9137 31.7161 49.501 31.6071 49.1249 31.7161C48.7489 31.8224 48.4521 32.1244 48.3644 32.5048L47.7708 35.0188L45.4469 36.1849C45.0935 36.3638 44.8674 36.7134 44.8532 37.1021C44.8391 37.488 45.0426 37.8599 45.3734 38.0612L47.6011 39.3923L48.0054 41.9399C48.062 42.3258 48.339 42.6474 48.7065 42.7789C48.8309 42.8208 48.9525 42.8432 49.0769 42.8432C49.337 42.8432 49.5914 42.7509 49.7865 42.5775L51.7542 40.8884L54.324 41.2883C54.7141 41.3527 55.1043 41.1961 55.3531 40.8884C55.5906 40.5808 55.6499 40.1642 55.4973 39.8062L54.4852 37.4293L55.6641 35.1306C55.845 34.7811 55.8168 34.3644 55.5991 34.0428L55.616 34.0652ZM50.7308 38.9478L49.8544 39.7L49.6735 38.5703C49.6226 38.2543 49.436 37.983 49.1589 37.818L48.1666 37.2308L49.1957 36.7162C49.4784 36.5736 49.6876 36.3079 49.7611 36.0003L50.0212 34.8901L50.8382 35.6983C51.0616 35.9192 51.381 36.0339 51.7005 36.0059L52.8511 35.9052L52.3224 36.9231C52.1782 37.2028 52.1641 37.5384 52.2941 37.832L52.7437 38.8835L51.6015 38.7045C51.2905 38.6542 50.9654 38.7464 50.7194 38.9562L50.7308 38.9478Z" fill="#FFFFFF"/>
<path d="M59.8931 7.05465C59.7263 6.7051 59.3786 6.4674 58.9884 6.43943L52.5766 5.9892L48.7996 0.840942C48.5677 0.524941 48.1776 0.35995 47.7875 0.404693C47.3973 0.455028 47.0637 0.706713 46.9111 1.06466L44.494 6.9568L38.379 8.9255C38.003 9.04855 37.7288 9.35615 37.6468 9.74204C37.5733 10.128 37.7118 10.5138 38.0171 10.7739L42.9391 14.868V21.2243C42.9391 21.6102 43.1568 21.9765 43.4961 22.1611C43.6629 22.2534 43.8438 22.2981 44.0247 22.2981C44.2283 22.2981 44.4233 22.2422 44.5958 22.1331L50.0521 18.769L56.1671 20.7377C56.5431 20.8608 56.9558 20.7657 57.2442 20.5028C57.5326 20.2372 57.6485 19.8373 57.5552 19.457L56.0144 13.2852L59.7915 8.13696C60.0233 7.82096 60.0657 7.40711 59.8989 7.05475L59.8931 7.05465ZM53.9506 12.4294C53.7612 12.6867 53.6962 13.0083 53.7781 13.3159L54.9711 18.0978L50.2386 16.5738C49.9332 16.4815 49.6025 16.5179 49.3254 16.68L45.099 19.2863V14.3618C45.099 14.0458 44.9548 13.7466 44.7145 13.5396L40.9064 10.3685L45.639 8.84441C45.9443 8.74374 46.1903 8.52282 46.3118 8.22919L48.1862 3.66259L51.1094 7.65032C51.2988 7.90759 51.5957 8.06419 51.9123 8.08657L56.8767 8.43612L53.9535 12.4238L53.9506 12.4294Z" fill="#FFFFFF"/>
</g>
<defs>
<clipPath id="clip0_120_814">
<rect width="60" height="60" fill="white"/>
</clipPath>
</defs>
</svg>
